<svg xmlns="http://www.w3.org/2000/svg" width="24" height="24" viewBox="0 0 24 24" fill="none" stroke="currentColor" stroke-width="2" stroke-linecap="round" stroke-linejoin="round">
  <path d="M12 20H5C3.34315 20 2 18.6569 2 17V7C2 5.34315 3.34315 4 5 4H19C20.6569 4 22 5.34315 22 7V10M2 7L11.2929 11C11.7154 11.2817 12.2846 11.2817 12.7071 11L22 7M21 17C21 18.1046 20.1046 19 19 19C17.8954 19 17 18.1046 17 17C17 15.8954 17.8954 15 19 15C20.1046 15 21 15.8954 21 17ZM21.6563 17L22 17M20.8783 18.8783L21.1213 19.1213M19 19.6563L19 20M17.1217 18.8783L16.8787 19.1213M16.3438 17L16 17M17.1217 15.1217L16.8787 14.8787M19 14.3438L19 14M20.8783 15.1217L21.1213 14.8787"/>
</svg>
