<svg xmlns="http://www.w3.org/2000/svg" width="24" height="24" viewBox="0 0 24 24" fill="none">
  <path d="M14 1C14.2652 1 14.5196 1.1054 14.7071 1.2929L20.7071 7.2929C20.8946 7.4804 21 7.7348 21 8L21 22C21 22.5523 20.5523 23 20 23L4 23C3.4477 23 3 22.5523 3 22L3 2C3 1.4477 3.4477 1 4 1L14 1ZM15 8L20 8L14 2L14 7C14 7.5523 14.4477 8 15 8ZM9 3L9 7L11 7L11 3L9 3ZM9 13.1716C7.8014 13.5954 7 14.7287 7 16C7 17.6569 8.3431 19 10 19C11.6569 19 13 17.6569 13 16C13 14.7287 12.1986 13.5954 11 13.1716L11 9L9 9L9 13.1716ZM11 16C11 15.4477 10.5523 15 10 15C9.4477 15 9 15.4477 9 16C9 16.5523 9.4477 17 10 17C10.5523 17 11 16.5523 11 16Z" fill="currentColor"/>
</svg>
