<svg width="24" height="24" viewBox="0 0 24 24" fill="none" xmlns="http://www.w3.org/2000/svg">
<path fill-rule="evenodd" clip-rule="evenodd" d="M12 1C18.0751 1 23 5.9249 23 12C23 18.0751 18.0751 23 12 23C5.9249 23 1 18.0751 1 12C1 5.9249 5.9249 1 12 1ZM13 6C13 5.4477 12.5523 5 12 5C11.4477 5 11 5.4477 11 6L11 11.732L8.634 15.8301C8.3578 16.3084 8.5217 16.92 9 17.1961C9.2297 17.3287 9.5026 17.3647 9.7588 17.296C10.015 17.2274 10.2334 17.0598 10.366 16.8301L12.866 12.5C12.9538 12.348 13 12.1755 13 12L13 6Z" fill="black"/>
</svg>
